<svg xmlns="http://www.w3.org/2000/svg" width="32" height="32" viewBox="0 0 32 32" fill="none">
  <rect width="32" height="32" rx="6" fill="#0f172a"/>
  <path d="M16 6C10.477 6 6 10.477 6 16C6 21.523 10.477 26 16 26C21.523 26 26 21.523 26 16C26 10.477 21.523 6 16 6ZM16 8C20.418 8 24 11.582 24 16C24 20.418 20.418 24 16 24C11.582 24 8 20.418 8 16C8 11.582 11.582 8 16 8Z" fill="#38bdf8"/>
  <path d="M16 12C14.895 12 14 12.895 14 14V22C14 23.105 14.895 24 16 24C17.105 24 18 23.105 18 22V14C18 12.895 17.105 12 16 12Z" fill="#38bdf8"/>
  <path d="M21 14C19.895 14 19 14.895 19 16V20C19 21.105 19.895 22 21 22C22.105 22 23 21.105 23 20V16C23 14.895 22.105 14 21 14Z" fill="#38bdf8"/>
  <path d="M11 16C9.895 16 9 16.895 9 18V20C9 21.105 9.895 22 11 22C12.105 22 13 21.105 13 20V18C13 16.895 12.105 16 11 16Z" fill="#38bdf8"/>
</svg>